<svg width="94" height="30" viewBox="0 0 94 30" fill="none" xmlns="http://www.w3.org/2000/svg">
<path d="M1.60621 22.7891V7.10742H3.72535L4.63993 10.1411V22.7891H1.60621ZM12.4473 22.7891L3.14537 10.7434L3.72535 7.10742L13.0273 19.1531L12.4473 22.7891ZM12.4473 22.7891L11.5773 19.8446V7.10742H14.6334V22.7891H12.4473ZM21.6502 23.0121C20.6985 23.0121 19.8508 22.8114 19.1072 22.4098C18.3786 22.0083 17.806 21.4507 17.3896 20.7368C16.9732 20.023 16.765 19.1977 16.765 18.2608V12.0149H19.7095V18.1939C19.7095 18.64 19.7839 19.0267 19.9326 19.3538C20.0813 19.6661 20.3044 19.9041 20.6018 20.0676C20.8992 20.2312 21.2487 20.313 21.6502 20.313C22.2599 20.313 22.7358 20.1271 23.0778 19.7553C23.4199 19.3836 23.5909 18.8631 23.5909 18.1939V12.0149H26.5131V18.2608C26.5131 19.2125 26.3049 20.0453 25.8885 20.7591C25.487 21.473 24.9144 22.0306 24.1709 22.4322C23.4422 22.8188 22.602 23.0121 21.6502 23.0121ZM29.9778 22.7891V7.53125H32.9V22.7891H29.9778ZM27.4571 14.5802V12.0149H35.4206V14.5802H27.4571ZM36.6179 22.7891V12.0149H39.5401V22.7891H36.6179ZM39.5401 16.8332L38.4024 16.0747C38.5362 14.7512 38.9229 13.7102 39.5624 12.9518C40.2018 12.1785 41.1238 11.7918 42.3284 11.7918C42.8489 11.7918 43.3173 11.8811 43.7337 12.0595C44.1501 12.2231 44.5293 12.4982 44.8714 12.8849L43.0422 14.9817C42.8786 14.8032 42.6779 14.6694 42.4399 14.5802C42.2169 14.491 41.9566 14.4463 41.6592 14.4463C41.0346 14.4463 40.5216 14.6471 40.12 15.0486C39.7334 15.4353 39.5401 16.0301 39.5401 16.8332ZM45.4517 22.7891V12.0149H48.3962V22.7891H45.4517ZM46.9239 10.275C46.4481 10.275 46.054 10.1188 45.7417 9.80653C45.4294 9.47937 45.2732 9.07785 45.2732 8.60197C45.2732 8.14096 45.4294 7.74688 45.7417 7.41971C46.054 7.09255 46.4481 6.92896 46.9239 6.92896C47.4147 6.92896 47.8088 7.09255 48.1062 7.41971C48.4185 7.74688 48.5746 8.14096 48.5746 8.60197C48.5746 9.07785 48.4185 9.47937 48.1062 9.80653C47.8088 10.1188 47.4147 10.275 46.9239 10.275ZM49.691 22.7891L56.0038 7.10742H58.4799L64.7704 22.7891H61.5359L56.673 9.91807H57.7884L52.8586 22.7891H49.691ZM53.037 19.8669V17.3239H61.469V19.8669H53.037ZM66.1764 22.7891V7.10742H69.2101V22.7891H66.1764Z" fill="#272727" style="fill:#272727;fill:color(display-p3 0.1516 0.1516 0.1516);fill-opacity:1;"/>
<path d="M82.1562 23.8286C78.6047 26.5796 73.5051 23.6353 74.1118 19.1841L74.5359 16.0723C74.6013 15.5923 74.6013 15.1057 74.5359 14.6257L74.1118 11.5138C73.5051 7.06262 78.6047 4.11841 82.1562 6.8694L84.6391 8.79263C85.022 9.08928 85.4435 9.3326 85.8919 9.51594L88.7989 10.7046C92.9571 12.4048 92.9571 18.2932 88.7989 19.9934L85.8919 21.182C85.4435 21.3654 85.022 21.6087 84.6391 21.9053L82.1562 23.8286Z" fill="url(#paint0_linear_554_3182)" stroke="url(#paint1_linear_554_3182)" style="" stroke-width="0.338342"/>
<defs>
<linearGradient id="paint0_linear_554_3182" x1="74.9075" y1="7.66572" x2="86.13" y2="25.9244" gradientUnits="userSpaceOnUse">
<stop stop-color="#85A3FF" style="stop-color:#85A3FF;stop-color:color(display-p3 0.5200 0.6376 1.0000);stop-opacity:1;"/>
<stop offset="0.505" stop-color="#466AD9" style="stop-color:#466AD9;stop-color:color(display-p3 0.2745 0.4157 0.8510);stop-opacity:1;"/>
<stop offset="1" stop-color="#2D458C" style="stop-color:#2D458C;stop-color:color(display-p3 0.1774 0.2687 0.5500);stop-opacity:1;"/>
</linearGradient>
<linearGradient id="paint1_linear_554_3182" x1="73.8864" y1="9.43442" x2="87.3453" y2="24.283" gradientUnits="userSpaceOnUse">
<stop stop-color="white" style="stop-color:white;stop-opacity:1;"/>
<stop offset="1" stop-color="#999999" style="stop-color:#999999;stop-color:color(display-p3 0.6000 0.6000 0.6000);stop-opacity:1;"/>
</linearGradient>
</defs>
</svg>
